<svg xmlns="http://www.w3.org/2000/svg" viewBox="0 0 2367 2000" style="enable-background:new 0 0 2367 2000" xml:space="preserve">
	<path fill="#FFF" d="M61.5 782.4h155c19.5 0 33.8 2.5 42.8 7.5 9.5 4.5 15.6 11.8 18.4 21.8 3.2 9.5 4.8 21.5 4.8 36v106.1c0 16.3-1.4 31.7-4.1 46.2-2.7 14-9.7 25.6-21.1 34.7-11.3 8.6-29.9 12.9-55.8 12.9h-66V1204h-74V782.4zm115.6 207.4c11.3 0 19.5-3.2 24.5-9.5s7.5-16.8 7.5-31.3v-66.6c0-18.1-2-29.7-6.1-34.7-3.6-5-11.1-7.5-22.4-7.5h-44.9v149.6h41.4zm245.3 217.6c-20.4 0-38.8-2-55.1-6.1s-29.2-10.7-38.8-19.7c-9.1-9.5-13.6-22.2-13.6-38.1V782.4H389v338c0 5 .9 9.8 2.7 14.3 1.8 4.5 5.2 8.2 10.2 10.9 5 2.7 11.8 4.1 20.4 4.1 9.5 0 16.8-1.4 21.8-4.1 5-2.7 8.4-6.3 10.2-10.9 1.8-5 2.7-9.8 2.7-14.3v-338h74.1v361.1c0 15.9-4.8 28.6-14.3 38.1-9.1 9.1-22 15.6-38.8 19.7-16.1 4.1-34.7 6.1-55.6 6.1zm152.9-425h74.1v363.8h122.4v57.8H575.3V782.4zm332.4 426.4c-19.9 0-38.8-1.4-56.4-4.1-17.2-2.7-31.1-7.9-41.5-15.6-10-8.2-15-19.7-15-34.7v-95.2l73.4-8.2v72.8c0 8.2 2.3 14.7 6.8 19.7 5 4.5 14.5 6.8 28.6 6.8 9.1 0 16.1-1.1 21.1-3.4 5-2.7 8.4-6.3 10.2-10.9 1.8-4.5 2.7-10.2 2.7-17v-45.6c0-12.2-2.9-23.1-8.8-32.6-5.4-9.5-15.6-16.6-30.6-21.1l-46.9-14.3c-19.9-6.3-34.5-14.5-43.5-24.5-8.6-10-12.9-25.6-12.9-46.9v-88.4c0-19.9 5-34.7 15-44.2s23.6-15.6 40.8-18.4c17.2-3.2 36-4.8 56.4-4.8 19.5 0 36.9 1.6 52.4 4.8 15.9 3.2 28.3 8.8 37.4 17 9.5 7.7 14.3 18.6 14.3 32.6v95.2L937.8 938v-68.7c0-14.1-2.5-23.1-7.5-27.2-4.5-4.5-13.1-6.8-25.8-6.8-13.1 0-22.4 2.7-27.9 8.2-5.4 5-8.2 15.2-8.2 30.6v39.4c0 10.4 2.3 20.2 6.8 29.2 5 8.6 12.9 14.7 23.8 18.4l52.4 16.3c21.3 6.8 36.5 15.4 45.6 25.8 9.5 10 14.3 25.6 14.3 46.9v89.1c0 19.5-4.5 34.2-13.6 44.2s-21.5 16.8-37.4 20.4c-15.6 3.4-33.1 5-52.6 5zm144.2-426.4H1260v57.8h-134v103.4h119.7l-9.5 57.8H1126v144.8h134v57.8h-208.1V782.4zm308.9 421.6-84.3-421.6h74.1l46.9 272 .7 14.3h.7v-14.3l42.8-253h55.8l40.8 253 .7 14.3h.7l.7-14.3 42.8-272h76.8l-83 421.6h-70l-35.4-231.2-.7-13.6h-.7l-.7 13.6-38.8 231.2h-69.9zm259 0 87.7-421.6h81.6l87 421.6h-76.8l-17.7-91.1 12.2 11.6H1700l10.2-11.6-15.6 91.1h-74.8zm93.1-129.9-6.8-8.2h83.6l-9.5 8.2-29.2-192.4-.7-12.9h-5.4l-.7 12.9-31.3 192.4zm209.6 129.9-87.7-421.6h73.4l51 309.4.7 14.3h.7v-14.3l47.6-309.4h76.8l-87.7 421.6h-74.8zm186.3-421.6h208.1v57.8h-134v103.4h119.7l-9.5 57.8h-110.2v144.8h134v57.8h-208.1V782.4zM1183.5 2000c467.4 0 859.9-320.7 969.5-754h-235.8c-102.6 306.8-392.3 528-733.7 528-341.4 0-631.1-221.2-733.7-528H214c109.6 433.3 502.1 754 969.5 754zM450.4 753H214.3C324.2 320.2 716.5 0 1183.5 0c467 0 859.3 320.2 969.3 753h-236.2c-103.2-305.8-392.4-526-733.1-526-340.6 0-629.8 220.2-733.1 526z" />
	<path fill="#FFF" d="M1628.7 1228H738.5c82.9 161.5 251.1 272 445.1 272 194 0 362.2-110.5 445.1-272zm.5-455H738c82.7-162 251.2-273 445.6-273 194.4 0 362.9 111 445.6 273z" />
</svg>
